<svg xmlns="http://www.w3.org/2000/svg" viewBox="0 0 478.57 169.74"><defs><style>.cls-1{fill:#fff;}.cls-2{fill:#008ebc;}</style></defs><g id="Layer_2" data-name="Layer 2"><g id="OBJECTS"><path class="cls-1" d="M12.82,163.41c-6.62,0-10.94-5-10.94-12.74S6.2,138,12.77,138c5.22,0,9.13,3,10,7.66H20.43c-1-3.49-3.8-5.51-7.66-5.51-5.17,0-8.52,4.17-8.52,10.57s3.35,10.59,8.57,10.59c4.79,0,7.89-3,7.89-7.64v-.85H13.26v-2.05H23v2.71C23,159.48,19,163.41,12.82,163.41Z"/><path class="cls-1" d="M28.09,144.66h2.12v3h.22a5.1,5.1,0,0,1,5.08-3.31,7.53,7.53,0,0,1,1.71.16v2.22a8.83,8.83,0,0,0-2-.23,4.84,4.84,0,0,0-4.93,5V162.9H28.09Z"/><path class="cls-1" d="M39.56,153.77c0-5.83,3.18-9.42,8.28-9.42s8.3,3.59,8.3,9.42-3.2,9.44-8.3,9.44S39.56,159.6,39.56,153.77Zm14.28,0c0-4.62-2.24-7.42-6-7.42s-6,2.8-6,7.42,2.23,7.42,6,7.42S53.84,158.4,53.84,153.77Z"/><path class="cls-1" d="M73.46,150a5.09,5.09,0,0,0-5.23-3.68c-3.63,0-5.93,2.86-5.93,7.37s2.32,7.47,5.93,7.47c2.69,0,4.66-1.3,5.22-3.54H75.7c-.56,3.27-3.29,5.56-7.45,5.56-5,0-8.23-3.7-8.23-9.49s3.18-9.37,8.21-9.37c4.18,0,6.94,2.49,7.49,5.68Z"/><path class="cls-1" d="M95.11,158.4c-.9,3-3.71,4.81-7.54,4.81-5,0-8.17-3.66-8.17-9.42s3.19-9.44,8.15-9.44,7.84,3.46,7.84,9v1H81.69v.11c.12,4.11,2.41,6.75,5.93,6.75,2.59,0,4.45-1,5.23-2.82Zm-13.4-5.86H93.07c0-3.77-2.23-6.22-5.54-6.22S81.91,148.77,81.71,152.54Z"/><path class="cls-1" d="M100.2,144.66h2.12v3h.22a5.1,5.1,0,0,1,5.08-3.31,7.53,7.53,0,0,1,1.71.16v2.22a8.9,8.9,0,0,0-2-.23,4.84,4.84,0,0,0-4.93,5V162.9H100.2Z"/><path class="cls-1" d="M113.26,169.18v-1.91c.23,0,.71,0,1,0,1.71,0,2.6-.86,3.45-3.17l.37-1.13-6.84-18.36h2.41l5.52,15.82h.2l5.51-15.82h2.37l-7.1,19.12c-1.59,4.29-2.85,5.47-5.86,5.47A6,6,0,0,1,113.26,169.18Z"/><path class="cls-1" d="M140.89,162.9V138.46h2.66l9,21.27h.2l9-21.27h2.67V162.9h-2.16V143h-.17l-8.44,19.82h-2L143.23,143h-.15V162.9Z"/><path class="cls-1" d="M169.38,157.85c0-3.18,2.35-5,6.57-5.31l5.71-.38V150.4c0-2.61-1.58-4.06-4.54-4.06-2.51,0-4.32,1.06-4.76,2.82H170.1c.43-2.89,3.26-4.81,7.09-4.81,4.28,0,6.7,2.24,6.7,6V162.9h-2.13v-3.13h-.21a6.55,6.55,0,0,1-6,3.44C172,163.21,169.38,161.12,169.38,157.85Zm12.28-1.74V154l-5.41.39c-3.1.22-4.59,1.38-4.59,3.46s1.78,3.42,4.24,3.42C179.17,161.24,181.66,159,181.66,156.11Z"/><path class="cls-1" d="M189.49,144.66h2.12v3.28h.22c1-2.25,3.22-3.59,6.12-3.59,4.06,0,6.4,2.44,6.4,6.69V162.9h-2.22V151.6c0-3.47-1.59-5.25-4.76-5.25a5.35,5.35,0,0,0-5.66,5.71V162.9h-2.22Z"/><path class="cls-1" d="M208.85,157.85c0-3.18,2.35-5,6.57-5.31l5.71-.38V150.4c0-2.61-1.58-4.06-4.54-4.06-2.51,0-4.32,1.06-4.76,2.82h-2.25c.42-2.89,3.25-4.81,7.08-4.81,4.28,0,6.71,2.24,6.71,6V162.9h-2.14v-3.13H221a6.57,6.57,0,0,1-6,3.44C211.42,163.21,208.85,161.12,208.85,157.85Zm12.28-1.74V154l-5.4.39c-3.1.22-4.59,1.38-4.59,3.46s1.78,3.42,4.23,3.42C218.64,161.24,221.13,159,221.13,156.11Z"/><path class="cls-1" d="M228.93,165h2.36c.4,1.68,2.3,2.76,5.08,2.76,3.52,0,5.71-1.84,5.71-4.79v-4.1h-.22a6.42,6.42,0,0,1-6.12,3.81c-4.69,0-7.69-3.69-7.69-9.16s3-9.2,7.69-9.2a6.63,6.63,0,0,1,6.22,3.92h.2v-3.61h2.14v18.51c0,4-3.14,6.57-7.93,6.57C232.19,169.74,229.41,167.88,228.93,165Zm7.25-18.68c-3.64,0-5.84,2.86-5.84,7.2s2.2,7.18,5.84,7.18,5.93-2.83,5.93-7.15S239.79,146.35,236.18,146.35Z"/><path class="cls-1" d="M264.79,158.4c-.9,3-3.71,4.81-7.54,4.81-5,0-8.16-3.66-8.16-9.42s3.18-9.44,8.14-9.44,7.84,3.46,7.84,9v1h-13.7v.11c.12,4.11,2.41,6.75,5.93,6.75,2.59,0,4.46-1,5.23-2.82Zm-13.4-5.86h11.36c-.05-3.77-2.23-6.22-5.53-6.22S251.59,148.77,251.39,152.54Z"/><path class="cls-1" d="M269.88,144.66H272v3.28h.22a5.34,5.34,0,0,1,5.27-3.59,5.23,5.23,0,0,1,5.16,3.59h.22a6,6,0,0,1,5.69-3.59c3.66,0,5.78,2.21,5.78,6.07V162.9h-2.22v-12c0-3-1.47-4.58-4.22-4.58a4.66,4.66,0,0,0-4.69,5V162.9H281V150.69a4,4,0,0,0-4.2-4.34c-2.64,0-4.69,2.37-4.69,5.36V162.9h-2.22Z"/><path class="cls-1" d="M314.68,158.4c-.9,3-3.71,4.81-7.54,4.81-5,0-8.17-3.66-8.17-9.42s3.19-9.44,8.15-9.44,7.84,3.46,7.84,9v1h-13.7v.11c.12,4.11,2.41,6.75,5.93,6.75,2.59,0,4.45-1,5.23-2.82Zm-13.4-5.86h11.36c-.05-3.77-2.23-6.22-5.53-6.22S301.48,148.77,301.28,152.54Z"/><path class="cls-1" d="M319.77,144.66h2.12v3.28h.22c1-2.25,3.22-3.59,6.11-3.59,4.07,0,6.4,2.44,6.4,6.69V162.9h-2.21V151.6c0-3.47-1.6-5.25-4.76-5.25a5.35,5.35,0,0,0-5.66,5.71V162.9h-2.22Z"/><path class="cls-1" d="M343.56,140v4.68h4.34v1.88h-4.34v11.31c0,2.24.85,3.19,2.9,3.19.36,0,1,0,1.35,0v1.89a12,12,0,0,1-1.59.12c-3.49,0-4.88-1.32-4.88-4.64V146.54H338.4v-1.88h2.94V140Z"/><path class="cls-1" d="M363.26,156.55c.32,2.81,3.11,4.74,6.84,4.74s6.28-2,6.28-4.76c0-2.3-1.67-3.79-5.45-4.72l-2.8-.72c-4.59-1.13-6.51-3-6.51-6.36,0-3.95,3.4-6.78,8.36-6.78,4.68,0,8.13,2.76,8.39,6.49H376c-.37-2.61-2.73-4.37-6.12-4.37S364,142,364,144.66c0,2.13,1.5,3.37,5.23,4.3l2.42.61c5.05,1.25,7.12,3.25,7.12,6.71,0,4.27-3.51,7.13-8.86,7.13-5,0-8.69-2.78-9-6.86Z"/><path class="cls-1" d="M383.87,169.18v-1.91c.23,0,.71,0,1,0,1.71,0,2.6-.86,3.45-3.17l.37-1.13-6.84-18.36h2.41l5.52,15.82h.2l5.51-15.82h2.37l-7.1,19.12c-1.59,4.29-2.85,5.47-5.86,5.47A6,6,0,0,1,383.87,169.18Z"/><path class="cls-1" d="M407.61,144.35c3.68,0,6.28,1.83,6.69,4.73h-2.18c-.41-1.71-2.11-2.83-4.53-2.83s-4.33,1.32-4.33,3.15c0,1.51,1.18,2.37,3.62,2.95l2.51.59c3.52.85,5.23,2.27,5.23,4.91,0,3.15-3.07,5.36-7,5.36s-6.75-1.88-7.12-4.88h2.31c.49,1.83,2.23,3,4.87,3s4.69-1.37,4.69-3.29c0-1.59-1.13-2.52-3.57-3.1l-2.76-.66c-3.39-.81-5-2.2-5-4.77C401,146.56,403.93,144.35,407.61,144.35Z"/><path class="cls-1" d="M422.61,140v4.68H427v1.88h-4.34v11.31c0,2.24.85,3.19,2.9,3.19.36,0,1,0,1.35,0v1.89a12.15,12.15,0,0,1-1.59.12c-3.49,0-4.88-1.32-4.88-4.64V146.54h-2.94v-1.88h2.94V140Z"/><path class="cls-1" d="M446,158.4c-.9,3-3.71,4.81-7.54,4.81-5,0-8.16-3.66-8.16-9.42s3.18-9.44,8.15-9.44,7.84,3.46,7.84,9v1h-13.7v.11c.11,4.11,2.4,6.75,5.92,6.75,2.59,0,4.46-1,5.24-2.82Zm-13.4-5.86h11.37c-.05-3.77-2.24-6.22-5.54-6.22S432.76,148.77,432.55,152.54Z"/><path class="cls-1" d="M451,144.66h2.12v3.28h.22a5.34,5.34,0,0,1,5.27-3.59,5.21,5.21,0,0,1,5.16,3.59H464a6,6,0,0,1,5.69-3.59c3.65,0,5.77,2.21,5.77,6.07V162.9h-2.22v-12c0-3-1.47-4.58-4.21-4.58a4.65,4.65,0,0,0-4.69,5V162.9h-2.22V150.69a4,4,0,0,0-4.2-4.34c-2.65,0-4.7,2.37-4.7,5.36V162.9H451Z"/><path class="cls-1" d="M100.42,19.05,90.35,29Q75.13,14.06,55.13,14.06,37.64,14.06,26,25.29T14.37,53.38q0,14.74,11.28,26.56T56.77,91.76q29.76,0,37.41-25.85H67.31V52.32h42.41a77.48,77.48,0,0,1-1.37,16.3A48,48,0,0,1,102.69,82,48.49,48.49,0,0,1,91.25,95.17a45,45,0,0,1-15.31,8.3A66.81,66.81,0,0,1,56.46,106q-25.77,0-41.12-16.19T0,52.75A50.38,50.38,0,0,1,15.7,15.41Q31.39,0,53.73,0A70,70,0,0,1,78,4Q89,8,100.42,19.05Z"/><path class="cls-1" d="M141.42,38.19V51.46q4.53-8,8.87-11.52t11.28-3.55a24.41,24.41,0,0,1,5.62.94l-4.14,13.59a34.34,34.34,0,0,0-5.15-.79,15.4,15.4,0,0,0-11.52,4.81,16.55,16.55,0,0,0-4.65,12v35.69H128.15V38.19Z"/><path class="cls-1" d="M172.74,70.13q0-13.2,10.42-23.47T207.1,36.39A33.71,33.71,0,0,1,231.38,46.5q10.4,10.13,10.39,23.63T231.58,94.06Q221.4,104.41,208,104.41a34.36,34.36,0,0,1-24.79-10.23Q172.74,83.95,172.74,70.13Zm55.91,0a19.24,19.24,0,0,0-6.25-14.28,20.54,20.54,0,0,0-14.83-6.07A21.12,21.12,0,0,0,192.38,56,19.68,19.68,0,0,0,186,70.63a19,19,0,0,0,6.45,14.25A21.29,21.29,0,0,0,207.57,91a20.35,20.35,0,0,0,14.76-6.26A19.9,19.9,0,0,0,228.65,70.17Z"/><path class="cls-1" d="M255.75,63.72H292V77H255.75Z"/><polygon class="cls-1" points="464.55 38.19 448.39 73.19 442.13 86.76 420.86 132.84 435.05 132.84 478.57 38.19 464.55 38.19"/><polygon class="cls-2" points="423.92 38.19 409.61 38.19 439.8 83.27 445.61 70.68 423.92 38.19"/><path class="cls-1" d="M374.51,97.09c-13.5,0-28.86-6.65-34.49-22.37-2.46-5.62-3.71-12.61-3.71-21v-.15q0-16.21,6.1-25.51t19-9.3a21.42,21.42,0,0,1,6.82,1.1A26.34,26.34,0,0,0,352,12c-17.26-1.74-29.6,12.14-34.18,26.65a51.94,51.94,0,0,0-2.44,15A72.92,72.92,0,0,0,318.54,75,48,48,0,0,0,327.68,92a39.85,39.85,0,0,0,14.5,10.64,47.43,47.43,0,0,0,19.12,3.72A48.48,48.48,0,0,0,378,103.6,40.05,40.05,0,0,0,391,96a36.6,36.6,0,0,0,4.76-5.13,37.68,37.68,0,0,1-16.92,6A40.43,40.43,0,0,1,374.51,97.09Z"/><path class="cls-2" d="M374.83,83.81a21,21,0,0,1-12.39,4.65,35,35,0,0,0,15.67,1.94c9-1,22.27-8.66,25.42-19.73h-3.38a30.25,30.25,0,0,0-22.59,10.56A20.84,20.84,0,0,1,374.83,83.81Z"/><path class="cls-2" d="M352.63,5.51a32.63,32.63,0,0,1,25,16.1,30.3,30.3,0,0,0,25.85,15h0a40.93,40.93,0,0,0-3.94-14A36.86,36.86,0,0,0,391,11.23,39.85,39.85,0,0,0,378,3.65,48.25,48.25,0,0,0,361.3.9a47.6,47.6,0,0,0-19.12,3.71,41.74,41.74,0,0,0-6.12,3.3A33.83,33.83,0,0,1,352.63,5.51Z"/></g></g></svg>