<svg xmlns="http://www.w3.org/2000/svg" viewBox="0 0 379.8 454.19"><defs><style>.cls-1{fill:#1b2a66;}.cls-2{fill:#008ebc;}</style></defs><g id="Layer_2" data-name="Layer 2"><g id="OBJECTS"><path class="cls-1" d="M254.79,414.33c-58.17,0-124.31-28.65-148.56-96.34q-15.92-36.32-16-90.57c0-.11,0-.22,0-.32s0-.22,0-.33q0-69.81,26.26-109.86t82-40a91.43,91.43,0,0,1,29.37,4.73,113.73,113.73,0,0,0-70.14-33.88C83.41,40.25,30.26,100,10.54,162.53A223.62,223.62,0,0,0,0,227.19q.6,50.87,13.7,92.15,13.76,43.25,39.39,73a171.32,171.32,0,0,0,62.46,45.81q36.83,16,82.32,16,39.7,0,72.07-11.85t55.73-32.67a158.47,158.47,0,0,0,20.52-22.1,162.64,162.64,0,0,1-72.87,25.77A184.5,184.5,0,0,1,254.79,414.33Z"/><path class="cls-2" d="M256.16,357.14a90.68,90.68,0,0,1-53.36,20,150.73,150.73,0,0,0,67.5,8.37c38.83-4.21,95.91-37.3,109.49-85l-14.56,0c-37.58-.05-72.4,17.37-97.3,45.52A91.06,91.06,0,0,1,256.16,357.14Z"/><path class="cls-2" d="M160.53,19.88c46.16,4.63,84.18,30,107.88,69.36s65.32,64.51,111.3,64.51h.09a176.34,176.34,0,0,0-17-60.22,158.1,158.1,0,0,0-37.16-49q-23.4-20.81-55.73-32.67T197.87,0q-45.49,0-82.32,16A178.41,178.41,0,0,0,89.17,30.19,146.07,146.07,0,0,1,160.53,19.88Z"/></g></g></svg>